<?xml version="1.0" encoding="UTF-8" standalone="no"?>
<!DOCTYPE svg PUBLIC "-//W3C//DTD SVG 1.1//EN"
 "http://www.w3.org/Graphics/SVG/1.1/DTD/svg11.dtd">
<!-- Generated by graphviz version 2.43.0 (0)
 -->
<!-- Title: %3 Pages: 1 -->
<svg width="1631pt" height="404pt"
 viewBox="0.00 0.00 1630.88 404.00" xmlns="http://www.w3.org/2000/svg" xmlns:xlink="http://www.w3.org/1999/xlink">
<g id="graph0" class="graph" transform="scale(1 1) rotate(0) translate(4 400)">
<title>%3</title>
<polygon fill="white" stroke="transparent" points="-4,4 -4,-400 1626.88,-400 1626.88,4 -4,4"/>
<!-- [root] aws_instance.app_server (expand) -->
<g id="node1" class="node">
<title>[root] aws_instance.app_server (expand)</title>
<polygon fill="none" stroke="black" points="1335.38,-252 1141.38,-252 1141.38,-216 1335.38,-216 1335.38,-252"/>
<text text-anchor="middle" x="1238.38" y="-230.3" font-family="Times,serif" font-size="14.00">aws_instance.app_server</text>
</g>
<!-- [root] aws_instance.mongodb (expand) -->
<g id="node2" class="node">
<title>[root] aws_instance.mongodb (expand)</title>
<polygon fill="none" stroke="black" points="974.38,-180 792.38,-180 792.38,-144 974.38,-144 974.38,-180"/>
<text text-anchor="middle" x="883.38" y="-158.3" font-family="Times,serif" font-size="14.00">aws_instance.mongodb</text>
</g>
<!-- [root] aws_instance.app_server (expand)&#45;&gt;[root] aws_instance.mongodb (expand) -->
<g id="edge1" class="edge">
<title>[root] aws_instance.app_server (expand)&#45;&gt;[root] aws_instance.mongodb (expand)</title>
<path fill="none" stroke="black" d="M1151.99,-215.97C1099.92,-205.7 1033.5,-192.6 979.74,-182"/>
<polygon fill="black" stroke="black" points="980.34,-178.55 969.85,-180.05 978.98,-185.42 980.34,-178.55"/>
</g>
<!-- [root] var.app_ami -->
<g id="node4" class="node">
<title>[root] var.app_ami</title>
<polygon fill="none" stroke="black" points="1088.38,-180 992.38,-180 992.38,-144 1094.38,-144 1094.38,-174 1088.38,-180"/>
<polyline fill="none" stroke="black" points="1088.38,-180 1088.38,-174 "/>
<polyline fill="none" stroke="black" points="1094.38,-174 1088.38,-174 "/>
<text text-anchor="middle" x="1043.38" y="-158.3" font-family="Times,serif" font-size="14.00">var.app_ami</text>
</g>
<!-- [root] aws_instance.app_server (expand)&#45;&gt;[root] var.app_ami -->
<g id="edge2" class="edge">
<title>[root] aws_instance.app_server (expand)&#45;&gt;[root] var.app_ami</title>
<path fill="none" stroke="black" d="M1190.68,-215.88C1163.43,-206.09 1129.09,-193.77 1100.42,-183.47"/>
<polygon fill="black" stroke="black" points="1101.52,-180.15 1090.93,-180.07 1099.16,-186.74 1101.52,-180.15"/>
</g>
<!-- [root] var.app_priv_ip -->
<g id="node5" class="node">
<title>[root] var.app_priv_ip</title>
<polygon fill="none" stroke="black" points="1231.88,-180 1112.88,-180 1112.88,-144 1237.88,-144 1237.88,-174 1231.88,-180"/>
<polyline fill="none" stroke="black" points="1231.88,-180 1231.88,-174 "/>
<polyline fill="none" stroke="black" points="1237.88,-174 1231.88,-174 "/>
<text text-anchor="middle" x="1175.38" y="-158.3" font-family="Times,serif" font-size="14.00">var.app_priv_ip</text>
</g>
<!-- [root] aws_instance.app_server (expand)&#45;&gt;[root] var.app_priv_ip -->
<g id="edge3" class="edge">
<title>[root] aws_instance.app_server (expand)&#45;&gt;[root] var.app_priv_ip</title>
<path fill="none" stroke="black" d="M1222.81,-215.7C1215.18,-207.22 1205.86,-196.86 1197.51,-187.58"/>
<polygon fill="black" stroke="black" points="1200.07,-185.2 1190.78,-180.1 1194.86,-189.88 1200.07,-185.2"/>
</g>
<!-- [root] var.app_sg -->
<g id="node6" class="node">
<title>[root] var.app_sg</title>
<polygon fill="none" stroke="black" points="1342.38,-180 1256.38,-180 1256.38,-144 1348.38,-144 1348.38,-174 1342.38,-180"/>
<polyline fill="none" stroke="black" points="1342.38,-180 1342.38,-174 "/>
<polyline fill="none" stroke="black" points="1348.38,-174 1342.38,-174 "/>
<text text-anchor="middle" x="1302.38" y="-158.3" font-family="Times,serif" font-size="14.00">var.app_sg</text>
</g>
<!-- [root] aws_instance.app_server (expand)&#45;&gt;[root] var.app_sg -->
<g id="edge4" class="edge">
<title>[root] aws_instance.app_server (expand)&#45;&gt;[root] var.app_sg</title>
<path fill="none" stroke="black" d="M1254.2,-215.7C1261.95,-207.22 1271.42,-196.86 1279.91,-187.58"/>
<polygon fill="black" stroke="black" points="1282.58,-189.85 1286.74,-180.1 1277.41,-185.12 1282.58,-189.85"/>
</g>
<!-- [root] var.app_subnet -->
<g id="node7" class="node">
<title>[root] var.app_subnet</title>
<polygon fill="none" stroke="black" points="1485.88,-180 1366.88,-180 1366.88,-144 1491.88,-144 1491.88,-174 1485.88,-180"/>
<polyline fill="none" stroke="black" points="1485.88,-180 1485.88,-174 "/>
<polyline fill="none" stroke="black" points="1491.88,-174 1485.88,-174 "/>
<text text-anchor="middle" x="1429.38" y="-158.3" font-family="Times,serif" font-size="14.00">var.app_subnet</text>
</g>
<!-- [root] aws_instance.app_server (expand)&#45;&gt;[root] var.app_subnet -->
<g id="edge5" class="edge">
<title>[root] aws_instance.app_server (expand)&#45;&gt;[root] var.app_subnet</title>
<path fill="none" stroke="black" d="M1285.11,-215.88C1311.68,-206.14 1345.14,-193.87 1373.15,-183.61"/>
<polygon fill="black" stroke="black" points="1374.62,-186.8 1382.81,-180.07 1372.22,-180.22 1374.62,-186.8"/>
</g>
<!-- [root] var.key_name -->
<g id="node10" class="node">
<title>[root] var.key_name</title>
<polygon fill="none" stroke="black" points="1616.88,-180 1509.88,-180 1509.88,-144 1622.88,-144 1622.88,-174 1616.88,-180"/>
<polyline fill="none" stroke="black" points="1616.88,-180 1616.88,-174 "/>
<polyline fill="none" stroke="black" points="1622.88,-174 1616.88,-174 "/>
<text text-anchor="middle" x="1566.38" y="-158.3" font-family="Times,serif" font-size="14.00">var.key_name</text>
</g>
<!-- [root] aws_instance.app_server (expand)&#45;&gt;[root] var.key_name -->
<g id="edge6" class="edge">
<title>[root] aws_instance.app_server (expand)&#45;&gt;[root] var.key_name</title>
<path fill="none" stroke="black" d="M1329.34,-215.99C1377.53,-206.67 1437.93,-194.49 1499.77,-180.32"/>
<polygon fill="black" stroke="black" points="1500.75,-183.68 1509.71,-178.03 1499.18,-176.86 1500.75,-183.68"/>
</g>
<!-- [root] provider[&quot;registry.terraform.io/hashicorp/aws&quot;] -->
<g id="node3" class="node">
<title>[root] provider[&quot;registry.terraform.io/hashicorp/aws&quot;]</title>
<polygon fill="none" stroke="black" points="325.38,-108 0.12,-90 325.38,-72 650.65,-90 325.38,-108"/>
<text text-anchor="middle" x="325.38" y="-86.3" font-family="Times,serif" font-size="14.00">provider[&quot;registry.terraform.io/hashicorp/aws&quot;]</text>
</g>
<!-- [root] aws_instance.mongodb (expand)&#45;&gt;[root] provider[&quot;registry.terraform.io/hashicorp/aws&quot;] -->
<g id="edge7" class="edge">
<title>[root] aws_instance.mongodb (expand)&#45;&gt;[root] provider[&quot;registry.terraform.io/hashicorp/aws&quot;]</title>
<path fill="none" stroke="black" d="M792.18,-149.56C692.89,-137.1 534.39,-117.22 430.09,-104.14"/>
<polygon fill="black" stroke="black" points="430.22,-100.62 419.86,-102.85 429.35,-107.57 430.22,-100.62"/>
</g>
<!-- [root] var.mongo_ami -->
<g id="node11" class="node">
<title>[root] var.mongo_ami</title>
<polygon fill="none" stroke="black" points="786.38,-108 668.38,-108 668.38,-72 792.38,-72 792.38,-102 786.38,-108"/>
<polyline fill="none" stroke="black" points="786.38,-108 786.38,-102 "/>
<polyline fill="none" stroke="black" points="792.38,-102 786.38,-102 "/>
<text text-anchor="middle" x="730.38" y="-86.3" font-family="Times,serif" font-size="14.00">var.mongo_ami</text>
</g>
<!-- [root] aws_instance.mongodb (expand)&#45;&gt;[root] var.mongo_ami -->
<g id="edge8" class="edge">
<title>[root] aws_instance.mongodb (expand)&#45;&gt;[root] var.mongo_ami</title>
<path fill="none" stroke="black" d="M845.95,-143.88C825.13,-134.35 799.03,-122.41 776.9,-112.28"/>
<polygon fill="black" stroke="black" points="778.24,-109.05 767.69,-108.07 775.33,-115.41 778.24,-109.05"/>
</g>
<!-- [root] var.mongo_priv_ip -->
<g id="node12" class="node">
<title>[root] var.mongo_priv_ip</title>
<polygon fill="none" stroke="black" points="950.38,-108 810.38,-108 810.38,-72 956.38,-72 956.38,-102 950.38,-108"/>
<polyline fill="none" stroke="black" points="950.38,-108 950.38,-102 "/>
<polyline fill="none" stroke="black" points="956.38,-102 950.38,-102 "/>
<text text-anchor="middle" x="883.38" y="-86.3" font-family="Times,serif" font-size="14.00">var.mongo_priv_ip</text>
</g>
<!-- [root] aws_instance.mongodb (expand)&#45;&gt;[root] var.mongo_priv_ip -->
<g id="edge9" class="edge">
<title>[root] aws_instance.mongodb (expand)&#45;&gt;[root] var.mongo_priv_ip</title>
<path fill="none" stroke="black" d="M883.38,-143.7C883.38,-135.98 883.38,-126.71 883.38,-118.11"/>
<polygon fill="black" stroke="black" points="886.88,-118.1 883.38,-108.1 879.88,-118.1 886.88,-118.1"/>
</g>
<!-- [root] var.mongo_sg -->
<g id="node13" class="node">
<title>[root] var.mongo_sg</title>
<polygon fill="none" stroke="black" points="1082.38,-108 974.38,-108 974.38,-72 1088.38,-72 1088.38,-102 1082.38,-108"/>
<polyline fill="none" stroke="black" points="1082.38,-108 1082.38,-102 "/>
<polyline fill="none" stroke="black" points="1088.38,-102 1082.38,-102 "/>
<text text-anchor="middle" x="1031.38" y="-86.3" font-family="Times,serif" font-size="14.00">var.mongo_sg</text>
</g>
<!-- [root] aws_instance.mongodb (expand)&#45;&gt;[root] var.mongo_sg -->
<g id="edge10" class="edge">
<title>[root] aws_instance.mongodb (expand)&#45;&gt;[root] var.mongo_sg</title>
<path fill="none" stroke="black" d="M919.59,-143.88C939.64,-134.39 964.75,-122.51 986.1,-112.42"/>
<polygon fill="black" stroke="black" points="987.75,-115.51 995.29,-108.07 984.76,-109.18 987.75,-115.51"/>
</g>
<!-- [root] var.mongo_subnet -->
<g id="node14" class="node">
<title>[root] var.mongo_subnet</title>
<polygon fill="none" stroke="black" points="1246.38,-108 1106.38,-108 1106.38,-72 1252.38,-72 1252.38,-102 1246.38,-108"/>
<polyline fill="none" stroke="black" points="1246.38,-108 1246.38,-102 "/>
<polyline fill="none" stroke="black" points="1252.38,-102 1246.38,-102 "/>
<text text-anchor="middle" x="1179.38" y="-86.3" font-family="Times,serif" font-size="14.00">var.mongo_subnet</text>
</g>
<!-- [root] aws_instance.mongodb (expand)&#45;&gt;[root] var.mongo_subnet -->
<g id="edge11" class="edge">
<title>[root] aws_instance.mongodb (expand)&#45;&gt;[root] var.mongo_subnet</title>
<path fill="none" stroke="black" d="M955.41,-143.97C998.29,-133.83 1052.84,-120.93 1097.36,-110.4"/>
<polygon fill="black" stroke="black" points="1098.36,-113.76 1107.28,-108.05 1096.75,-106.95 1098.36,-113.76"/>
</g>
<!-- [root] var.aws_access_key -->
<g id="node8" class="node">
<title>[root] var.aws_access_key</title>
<polygon fill="none" stroke="black" points="310.88,-36 161.88,-36 161.88,0 316.88,0 316.88,-30 310.88,-36"/>
<polyline fill="none" stroke="black" points="310.88,-36 310.88,-30 "/>
<polyline fill="none" stroke="black" points="316.88,-30 310.88,-30 "/>
<text text-anchor="middle" x="239.38" y="-14.3" font-family="Times,serif" font-size="14.00">var.aws_access_key</text>
</g>
<!-- [root] provider[&quot;registry.terraform.io/hashicorp/aws&quot;]&#45;&gt;[root] var.aws_access_key -->
<g id="edge13" class="edge">
<title>[root] provider[&quot;registry.terraform.io/hashicorp/aws&quot;]&#45;&gt;[root] var.aws_access_key</title>
<path fill="none" stroke="black" d="M305.44,-72.76C294.47,-63.84 280.66,-52.6 268.51,-42.71"/>
<polygon fill="black" stroke="black" points="270.38,-39.72 260.42,-36.12 265.97,-45.15 270.38,-39.72"/>
</g>
<!-- [root] var.aws_secret_key -->
<g id="node9" class="node">
<title>[root] var.aws_secret_key</title>
<polygon fill="none" stroke="black" points="481.88,-36 334.88,-36 334.88,0 487.88,0 487.88,-30 481.88,-36"/>
<polyline fill="none" stroke="black" points="481.88,-36 481.88,-30 "/>
<polyline fill="none" stroke="black" points="487.88,-30 481.88,-30 "/>
<text text-anchor="middle" x="411.38" y="-14.3" font-family="Times,serif" font-size="14.00">var.aws_secret_key</text>
</g>
<!-- [root] provider[&quot;registry.terraform.io/hashicorp/aws&quot;]&#45;&gt;[root] var.aws_secret_key -->
<g id="edge14" class="edge">
<title>[root] provider[&quot;registry.terraform.io/hashicorp/aws&quot;]&#45;&gt;[root] var.aws_secret_key</title>
<path fill="none" stroke="black" d="M345.33,-72.76C356.29,-63.84 370.1,-52.6 382.25,-42.71"/>
<polygon fill="black" stroke="black" points="384.8,-45.15 390.34,-36.12 380.38,-39.72 384.8,-45.15"/>
</g>
<!-- [root] provider[&quot;registry.terraform.io/hashicorp/aws&quot;] (close) -->
<g id="node15" class="node">
<title>[root] provider[&quot;registry.terraform.io/hashicorp/aws&quot;] (close)</title>
<ellipse fill="none" stroke="black" cx="1238.38" cy="-306" rx="291.65" ry="18"/>
<text text-anchor="middle" x="1238.38" y="-302.3" font-family="Times,serif" font-size="14.00">[root] provider[&quot;registry.terraform.io/hashicorp/aws&quot;] (close)</text>
</g>
<!-- [root] provider[&quot;registry.terraform.io/hashicorp/aws&quot;] (close)&#45;&gt;[root] aws_instance.app_server (expand) -->
<g id="edge12" class="edge">
<title>[root] provider[&quot;registry.terraform.io/hashicorp/aws&quot;] (close)&#45;&gt;[root] aws_instance.app_server (expand)</title>
<path fill="none" stroke="black" d="M1238.38,-287.7C1238.38,-279.98 1238.38,-270.71 1238.38,-262.11"/>
<polygon fill="black" stroke="black" points="1241.88,-262.1 1238.38,-252.1 1234.88,-262.1 1241.88,-262.1"/>
</g>
<!-- [root] root -->
<g id="node16" class="node">
<title>[root] root</title>
<ellipse fill="none" stroke="black" cx="1238.38" cy="-378" rx="58.49" ry="18"/>
<text text-anchor="middle" x="1238.38" y="-374.3" font-family="Times,serif" font-size="14.00">[root] root</text>
</g>
<!-- [root] root&#45;&gt;[root] provider[&quot;registry.terraform.io/hashicorp/aws&quot;] (close) -->
<g id="edge15" class="edge">
<title>[root] root&#45;&gt;[root] provider[&quot;registry.terraform.io/hashicorp/aws&quot;] (close)</title>
<path fill="none" stroke="black" d="M1238.38,-359.7C1238.38,-351.98 1238.38,-342.71 1238.38,-334.11"/>
<polygon fill="black" stroke="black" points="1241.88,-334.1 1238.38,-324.1 1234.88,-334.1 1241.88,-334.1"/>
</g>
</g>
</svg>
